<?xml version="1.0" encoding="iso-8859-1"?>
<!-- Uploaded to: SVG Repo, www.svgrepo.com, Generator: SVG Repo Mixer Tools -->
<!DOCTYPE svg PUBLIC "-//W3C//DTD SVG 1.1//EN" "http://www.w3.org/Graphics/SVG/1.1/DTD/svg11.dtd">
<svg fill="#000000" height="800px" width="800px" version="1.1" id="Capa_1" xmlns="http://www.w3.org/2000/svg" xmlns:xlink="http://www.w3.org/1999/xlink" 
	 viewBox="0 0 297 297" xml:space="preserve">
<g>
	<path d="M80.565,0.36H6.479C2.907,0.36,0,3.267,0,6.839v247.126c0,3.572,2.907,6.479,6.479,6.479h74.086
		c3.572,0,6.479-2.907,6.479-6.479V6.839C87.044,3.267,84.137,0.36,80.565,0.36z M8.107,121.173c0-2.942,1.196-5.828,3.277-7.909
		c2.081-2.081,4.967-3.277,7.909-3.277c2.953,0,5.828,1.196,7.908,3.277c2.092,2.081,3.278,4.967,3.278,7.909
		c0,2.942-1.186,5.828-3.278,7.908c-2.08,2.081-4.955,3.278-7.908,3.278c-2.942,0-5.828-1.197-7.909-3.278
		C9.303,127.001,8.107,124.115,8.107,121.173z M61.98,239.749H25.065c-4.325,0-7.83-3.505-7.83-7.83c0-4.325,3.506-7.831,7.83-7.831
		H61.98c4.325,0,7.83,3.506,7.83,7.831C69.81,236.244,66.305,239.749,61.98,239.749z M61.98,202.834H25.065
		c-4.325,0-7.83-3.506-7.83-7.831s3.506-7.831,7.83-7.831H61.98c4.325,0,7.83,3.506,7.83,7.831S66.305,202.834,61.98,202.834z
		 M61.98,36.716H25.065c-4.325,0-7.83-3.506-7.83-7.83c0-4.325,3.506-7.83,7.83-7.83H61.98c4.325,0,7.83,3.506,7.83,7.83
		C69.81,33.21,66.305,36.716,61.98,36.716z"/>
	<path d="M110.303,260.444h76.393c3.572,0,6.479-2.907,6.479-6.479V6.839c0-3.572-2.907-6.479-6.479-6.479h-76.393
		c-3.572,0-6.479,2.907-6.479,6.479v247.126C103.824,257.538,106.731,260.444,110.303,260.444z M166.958,239.749h-36.915
		c-4.325,0-7.831-3.505-7.831-7.83c0-4.325,3.506-7.831,7.831-7.831h36.915c4.325,0,7.831,3.506,7.831,7.831
		C174.788,236.244,171.282,239.749,166.958,239.749z M166.958,202.834h-36.915c-4.325,0-7.831-3.506-7.831-7.831
		s3.506-7.831,7.831-7.831h36.915c4.325,0,7.831,3.506,7.831,7.831S171.282,202.834,166.958,202.834z M130.042,21.055h36.915
		c4.325,0,7.831,3.506,7.831,7.83c0,4.325-3.506,7.83-7.831,7.83h-36.915c-4.325,0-7.831-3.506-7.831-7.83
		C122.212,24.56,125.717,21.055,130.042,21.055z M122.13,113.264c2.081-2.081,4.967-3.277,7.909-3.277
		c2.953,0,5.828,1.196,7.908,3.277c2.092,2.081,3.278,4.967,3.278,7.909c0,2.942-1.186,5.828-3.278,7.908
		c-2.08,2.081-4.955,3.278-7.908,3.278c-2.942,0-5.828-1.197-7.909-3.278c-2.081-2.08-3.277-4.966-3.277-7.908
		C118.853,118.231,120.049,115.345,122.13,113.264z"/>
	<path d="M290.521,0.36h-74.086c-3.572,0-6.479,2.907-6.479,6.479v247.126c0,3.572,2.907,6.479,6.479,6.479h74.086
		c3.572,0,6.479-2.907,6.479-6.479V6.839C297,3.267,294.093,0.36,290.521,0.36z M222.327,121.173c0-2.942,1.196-5.828,3.277-7.909
		s4.967-3.277,7.909-3.277c2.942,0,5.828,1.196,7.908,3.277c2.092,2.081,3.278,4.967,3.278,7.909c0,2.942-1.186,5.828-3.278,7.908
		c-2.08,2.081-4.966,3.278-7.908,3.278c-2.942,0-5.828-1.197-7.909-3.278C223.523,127.001,222.327,124.115,222.327,121.173z
		 M271.935,239.749H235.02c-4.325,0-7.83-3.505-7.83-7.83c0-4.325,3.506-7.831,7.83-7.831h36.915c4.325,0,7.83,3.506,7.83,7.831
		C279.766,236.244,276.26,239.749,271.935,239.749z M271.935,202.834H235.02c-4.325,0-7.83-3.506-7.83-7.831s3.506-7.831,7.83-7.831
		h36.915c4.325,0,7.83,3.506,7.83,7.831S276.26,202.834,271.935,202.834z M271.935,36.716H235.02c-4.325,0-7.83-3.506-7.83-7.83
		c0-4.325,3.506-7.83,7.83-7.83h36.915c4.325,0,7.83,3.506,7.83,7.83C279.766,33.21,276.26,36.716,271.935,36.716z"/>
	<path d="M3.718,286.095c0,5.823,4.721,10.545,10.545,10.545s10.545-4.721,10.545-10.545v-12.227H3.718V286.095z"/>
	<path d="M92.463,286.095c0,5.823,4.722,10.545,10.545,10.545c5.823,0,10.545-4.721,10.545-10.545v-12.227h-21.09V286.095z"/>
	<path d="M181.209,286.095c0,5.823,4.722,10.545,10.545,10.545c5.823,0,10.545-4.721,10.545-10.545v-12.227h-21.09V286.095z"/>
	<path d="M269.955,286.095c0,5.823,4.721,10.545,10.545,10.545c5.823,0,10.545-4.721,10.545-10.545v-12.227h-21.09V286.095z"/>
</g>
</svg>